<svg xmlns="http://www.w3.org/2000/svg" xmlns:xlink="http://www.w3.org/1999/xlink" version="1.1" x="0px" y="0px" viewBox="0 0 90 90" enable-background="new 0 0 90 90" xml:space="preserve"><g><g><g><path fill="#ffffff" stroke="#ec5d57" stroke-width="2.3364" stroke-miterlimit="10" d="M68.3,45.23h4.533     c1.185,0,2.145,0.959,2.145,2.144l0,0c0,1.182-0.96,2.143-2.145,2.143H68.3"/><polygon fill="#ffffff" stroke="#ec5d57" stroke-width="2.3364" stroke-miterlimit="10" points="15.023,10.967 23.624,10.967      31.866,10.967 31.866,19.535 31.866,45.23 67.366,45.23 67.366,71.959 23.624,71.959 23.624,53.794 23.624,45.23 23.624,19.535      15.023,19.535    "/><path d="M26.192,15.252c0,0.669,0.535,1.213,1.206,1.213c0.667,0,1.207-0.544,1.207-1.213c0-0.666-0.54-1.207-1.207-1.207     C26.728,14.045,26.192,14.586,26.192,15.252z"/><g><polygon fill="#ffffff" stroke="#ec5d57" stroke-width="2.3364" stroke-miterlimit="10" points="56.563,88.1 59.525,88.1       59.525,71.959 54.301,71.959     "/><polygon fill="#ffffff" stroke="#ec5d57" stroke-width="2.3364" stroke-miterlimit="10" points="48.44,88.1 51.407,88.1       51.407,71.959 46.181,71.959     "/><polygon fill="#ffffff" stroke="#ec5d57" stroke-width="2.3364" stroke-miterlimit="10" points="40.204,88.1 43.172,88.1       43.172,71.959 37.946,71.959     "/><polygon fill="#ffffff" stroke="#ec5d57" stroke-width="2.3364" stroke-miterlimit="10" points="32.087,88.1 35.051,88.1       35.051,71.959 29.825,71.959     "/></g><rect x="27.646" y="1.9" fill="#ffffff" stroke="#ec5d57" stroke-width="2.3364" stroke-miterlimit="10" width="4.221" height="9.066"/><rect x="18.935" y="1.9" fill="#ffffff" stroke="#ec5d57" stroke-width="2.3364" stroke-miterlimit="10" width="4.219" height="9.066"/></g><path fill="#ffffff" stroke="#ec5d57" stroke-width="2.3364" stroke-miterlimit="10" d="M54.726,49.731c0,1.85,1.5,3.35,3.349,3.35    c1.85,0,3.349-1.5,3.349-3.35"/><path fill="#ffffff" stroke="#ec5d57" stroke-width="2.3364" stroke-miterlimit="10" d="M51.377,57.065    c0,1.848,1.499,3.349,3.349,3.349s3.349-1.5,3.349-3.349"/><path fill="#ffffff" stroke="#ec5d57" stroke-width="2.3364" stroke-miterlimit="10" d="M53.563,63.931    c0,1.849,1.5,3.349,3.352,3.349c1.849,0,3.35-1.5,3.35-3.349"/><path fill="#ffffff" stroke="#ec5d57" stroke-width="2.3364" stroke-miterlimit="10" d="M28.517,64.334c0,1.849,1.5,3.349,3.35,3.349    c1.849,0,3.348-1.5,3.348-3.349"/><path fill="#ffffff" stroke="#ec5d57" stroke-width="2.3364" stroke-miterlimit="10" d="M34.598,55.391    c0,1.849,1.499,3.349,3.349,3.349c1.849,0,3.349-1.5,3.349-3.349"/><path fill="#ffffff" stroke="#ec5d57" stroke-width="2.3364" stroke-miterlimit="10" d="M30.442,48.581c0,1.85,1.5,3.351,3.351,3.351    c1.848,0,3.348-1.5,3.348-3.351"/><path fill="#ffffff" stroke="#ec5d57" stroke-width="2.3364" stroke-miterlimit="10" d="M40.56,62.464    c0,1.849,1.499,3.349,3.346,3.349c1.852,0,3.352-1.5,3.352-3.349"/><path fill="#ffffff" stroke="#ec5d57" stroke-width="2.3364" stroke-miterlimit="10" d="M42.833,51.406    c0,1.85,1.499,3.349,3.348,3.349c1.85,0,3.35-1.499,3.35-3.349"/></g></g></svg>